<svg xmlns="http://www.w3.org/2000/svg" xmlns:xlink="http://www.w3.org/1999/xlink" width="100" height="100" viewBox="0 0 100 100"><defs><clipPath id="b"><rect width="100" height="100"/></clipPath></defs><g id="a" clip-path="url(#b)"><g transform="translate(0)"><g transform="translate(0 0)"><path d="M50,100A50.013,50.013,0,0,1,30.538,3.929,50.013,50.013,0,0,1,69.463,96.071,49.685,49.685,0,0,1,50,100ZM38.333,42.823V52.2h5.623V79.4H55.212V52.2h7.509l1-9.375H55.212l.013-4.691c0-2.4.174-3.756,3.744-3.756h4.693V25H56.153c-4.384,0-7.486,1.057-9.481,3.23-1.827,1.99-2.716,4.923-2.716,8.965v5.629Z" transform="translate(0 0)" fill="#fff"/></g></g></g></svg>
