<svg xmlns="http://www.w3.org/2000/svg" xmlns:xlink="http://www.w3.org/1999/xlink" width="100" height="100" viewBox="0 0 100 100">
  <defs>
    <clipPath id="clip-instagram_con">
      <rect width="100" height="100"/>
    </clipPath>
  </defs>
  <g id="instagram_con" clip-path="url(#clip-instagram_con)">
    <g id="Group_1" data-name="Group 1" transform="translate(-803.5 -733)">
      <g id="Instagram_black" transform="translate(803.5 733)">
        <path id="Combined-Shape" d="M50,100A50.013,50.013,0,0,1,30.538,3.929,50.013,50.013,0,0,1,69.463,96.071,49.685,49.685,0,0,1,50,100Zm0-76.667-1.156,0c-6.122,0-7.092.033-9.836.157a19.714,19.714,0,0,0-6.473,1.239,13.634,13.634,0,0,0-7.8,7.8A19.591,19.591,0,0,0,23.494,39c-.13,2.91-.161,3.869-.161,11s.031,8.083.161,10.993a19.783,19.783,0,0,0,1.239,6.473,13.648,13.648,0,0,0,7.8,7.8A19.743,19.743,0,0,0,39,76.506c2.87.13,3.821.161,11,.161s8.125-.031,10.993-.161a19.753,19.753,0,0,0,6.476-1.238,13.662,13.662,0,0,0,7.8-7.8,19.884,19.884,0,0,0,1.239-6.473c.13-2.91.161-3.868.161-10.993s-.031-8.085-.161-11a19.856,19.856,0,0,0-1.239-6.471,13.634,13.634,0,0,0-7.8-7.8,19.792,19.792,0,0,0-6.478-1.239C58.121,23.363,57.171,23.333,50,23.333Z"/>
        <path id="Combined-Shape-2" data-name="Combined-Shape" d="M22.339,44.673c-7.251,0-8.116-.028-11.011-.159a15.113,15.113,0,0,1-5.06-.941,8.451,8.451,0,0,1-3.133-2.039A8.417,8.417,0,0,1,1.1,38.4a15.041,15.041,0,0,1-.939-5.058C.027,30.486,0,29.626,0,22.333s.027-8.149.157-11.007A15.075,15.075,0,0,1,1.1,6.265,8.4,8.4,0,0,1,3.135,3.133,8.48,8.48,0,0,1,6.267,1.092a15.113,15.113,0,0,1,5.06-.939C13.87.039,14.829.006,19.9,0c.234.007.486.007.709.007h1.734c7.335,0,8.188.027,11.011.155a15.081,15.081,0,0,1,5.06.939A8.417,8.417,0,0,1,41.541,3.14a8.48,8.48,0,0,1,2.041,3.133,15.154,15.154,0,0,1,.939,5.058c.13,2.86.157,3.72.157,11.009s-.027,8.149-.157,11.007a15.153,15.153,0,0,1-.939,5.058,9.037,9.037,0,0,1-5.171,5.167,15,15,0,0,1-5.06.941C30.457,44.646,29.591,44.673,22.339,44.673Zm0-36.322A13.993,13.993,0,1,0,36.331,22.346,14.009,14.009,0,0,0,22.339,8.352ZM36.885,4.529l-.006,0a2.358,2.358,0,1,0,.006,0Z" transform="translate(28.756 28.747)"/>
        <path id="Shape" d="M9.083,0A9.083,9.083,0,1,1,0,9.083,9.083,9.083,0,0,1,9.083,0Z" transform="translate(42.012 42.01)"/>
      </g>
    </g>
  </g>
</svg>
