<svg xmlns="http://www.w3.org/2000/svg" xmlns:xlink="http://www.w3.org/1999/xlink" width="100" height="100" viewBox="0 0 100 100">
  <defs>
    <clipPath id="clip-spotify_icon">
      <rect width="100" height="100"/>
    </clipPath>
  </defs>
  <g id="spotify_icon" clip-path="url(#clip-spotify_icon)">
    <g id="Group_1" data-name="Group 1" transform="translate(-722.5 -733)">
      <g id="Spotify_black" transform="translate(722.5 733)">
        <path id="Spotify-Copy" d="M48.5,97A48.513,48.513,0,0,1,29.622,3.811,48.513,48.513,0,0,1,67.379,93.189,48.2,48.2,0,0,1,48.5,97ZM41.008,64.227c9.663,0,18.269,2.266,25.578,6.734A3.025,3.025,0,0,0,69.74,65.8c-8.277-5.058-17.929-7.622-28.689-7.622a83.114,83.114,0,0,0-18.417,2.217A3.022,3.022,0,0,0,23.3,66.36a3.038,3.038,0,0,0,.677-.077A76.945,76.945,0,0,1,41.008,64.227Zm-.757-14.284h0c11.521,0,22.9,2.935,31.223,8.05a3.781,3.781,0,0,0,3.958-6.444A60.345,60.345,0,0,0,58.941,44.7a74.134,74.134,0,0,0-18.583-2.346A66.815,66.815,0,0,0,20.95,45.105a3.781,3.781,0,0,0,2.2,7.235A58.914,58.914,0,0,1,40.251,49.943ZM41.4,34.723h0c13.89,0,26.934,3.015,35.788,8.272a4.515,4.515,0,0,0,2.309.637A4.56,4.56,0,0,0,83.4,41.41a4.534,4.534,0,0,0-1.584-6.215c-10.211-6.062-24.951-9.539-40.439-9.539a82.61,82.61,0,0,0-23.172,3.05,4.537,4.537,0,1,0,2.635,8.683A73.429,73.429,0,0,1,41.4,34.723Z"/>
      </g>
    </g>
  </g>
</svg>
