<svg xmlns="http://www.w3.org/2000/svg" xmlns:xlink="http://www.w3.org/1999/xlink" width="100" height="100" viewBox="0 0 100 100">
  <defs>
    <clipPath id="clip-youtube_icon">
      <rect width="100" height="100"/>
    </clipPath>
  </defs>
  <g id="youtube_icon" clip-path="url(#clip-youtube_icon)">
    <g id="Group_1" data-name="Group 1" transform="translate(-763.5 -733)">
      <g id="Youtube_black" transform="translate(763.5 733)">
        <path id="Combined-Shape" d="M50,100A50.013,50.013,0,0,1,30.538,3.929,50.013,50.013,0,0,1,69.463,96.071,49.685,49.685,0,0,1,50,100Zm0-68.333c-.167,0-16.726.013-20.837,1.144a6.771,6.771,0,0,0-4.716,4.841c-1.1,4.222-1.116,13.092-1.116,13.181s.013,8.959,1.116,13.181a6.77,6.77,0,0,0,4.716,4.841C33.275,69.987,49.834,70,50,70s16.726-.013,20.837-1.144a6.77,6.77,0,0,0,4.714-4.841c1.1-4.222,1.116-13.092,1.116-13.181s-.013-8.959-1.116-13.181a6.771,6.771,0,0,0-4.714-4.841C66.727,31.68,50.168,31.667,50,31.667Z"/>
        <path id="Fill-2" d="M0,17.031V0L13.625,8.516Z" transform="translate(45.984 44.281)"/>
      </g>
    </g>
  </g>
</svg>
